# xmcd CD database file
#
# Track frame offsets:
#	150
#	19525
#	40394
#	53873
#	71599
#	84682
#	99475
#	114411
#	129798
#	142298
#	158539
#	170832
#	188586
#	205359
#	225004
#	241481
#	253115
#	268608
#	288253
#
# Disc length: 4096 seconds
#
# Revision: 1
# Processed by: cddbd v1.5.2PL0 Copyright (c) Steve Scherf et al.
# Submitted via: CDex 1.51
#
DISCID=060ffe13
DTITLE=Norah Jones - Not Too Late
DYEAR=2007
DGENRE=Jazz
TTITLE0=Wish I Could
TTITLE1=Sinkin' Soon
TTITLE2=The Sun Doesn't Like You
TTITLE3=Until the End
TTITLE4=Not My Friend
TTITLE5=Thinking About You
TTITLE6=Broken
TTITLE7=My Dear Country
TTITLE8=Wake Me Up
TTITLE9=Be My Somebody
TTITLE10=Little Room
TTITLE11=Rosie's Lullaby
TTITLE12=Not Too Late
TTITLE13=Sinkin' Soon (Live)
TTITLE14=Be My Somebody  (Live)
TTITLE15=Little Room (Live)
TTITLE16=Not Too Late (Live)
TTITLE17=Sinkin' Soon (Live)
TTITLE18=Until the End (Live)
EXTD=YEAR: 2007
EXTT0=
EXTT1=
EXTT2=
EXTT3=
EXTT4=
EXTT5=
EXTT6=
EXTT7=
EXTT8=
EXTT9=
EXTT10=
EXTT11=
EXTT12=
EXTT13=
EXTT14=
EXTT15=
EXTT16=
EXTT17=
EXTT18=
PLAYORDER=
